HIERARCHY
ROOT Hips
{
	OFFSET 0.000000 0.000000 0.000000 
	CHANNELS 6 Xposition Yposition Zposition Yrotation Zrotation Xrotation 
	JOINT Lumbar
	{
		OFFSET 0.000000 0.000000 0.000000 
		CHANNELS 3 Zrotation Xrotation Yrotation
		JOINT Neck
		{
			OFFSET 0.000000 0.445665 0.000000 
			CHANNELS 3 Zrotation Xrotation Yrotation
			End Site
			{
				OFFSET 0.000000 0.227535 0.000000 
			}
		}
		JOINT RightShoulder
		{
			OFFSET 0.019635 0.377685 0.194865 
			CHANNELS 3 Zrotation Xrotation Yrotation
			JOINT RightElbow
			{
				OFFSET 0.000000 -0.243375 0.000000 
				CHANNELS 2 Zrotation Yrotation
				JOINT RightWrist
				{
					OFFSET 0.000000 -0.264825 0.000000 
					CHANNELS 2 Zrotation Xrotation
					End Site
					{
						OFFSET 0.006600 -0.176220 0.000990 
					}
				}
			}
		}
		JOINT LeftShoulder
		{
			OFFSET 0.019635 0.377685 -0.194865 
			CHANNELS 3 Zrotation Xrotation Yrotation
			JOINT LeftElbow
			{
				OFFSET 0.000000 -0.243375 0.000000 
				CHANNELS 2 Zrotation Yrotation
				JOINT LeftWrist
				{
					OFFSET 0.000000 -0.264825 0.000000 
					CHANNELS 2 Zrotation Xrotation
					End Site
					{
						OFFSET 0.006600 -0.176220 -0.000990 
					}
				}
			}
		}
	}
	JOINT RightHip
	{
		OFFSET 0.052140 -0.069960 0.075570 
		CHANNELS 3 Zrotation Xrotation Yrotation
		JOINT RightKnee
		{
			OFFSET 0.000000 -0.402270 0.000000 
			CHANNELS 1 Zrotation
			JOINT RightAnkle
			{
				OFFSET 0.000000 -0.404085 0.000000 
				CHANNELS 3 Zrotation Xrotation Yrotation
				End Site
				{
					OFFSET 0.204105 -0.089430 0.008415 
				}
			}
		}
	}
	JOINT LeftHip
	{
		OFFSET 0.052140 -0.069960 -0.075570 
		CHANNELS 3 Zrotation Xrotation Yrotation
		JOINT LeftKnee
		{
			OFFSET 0.000000 -0.402270 0.000000 
			CHANNELS 1 Zrotation
			JOINT LeftAnkle
			{
				OFFSET 0.000000 -0.404085 0.000000 
				CHANNELS 3 Zrotation Xrotation Yrotation
				End Site
				{
					OFFSET 0.204105 -0.089430 -0.008415 
				}
			}
		}
	}
}
MOTION
Frames: 28
Frame Time: 0.02
-0.02071 0.98079 1.33422 724.69616 0 -6.94227 -1.69462 -0.44709 -6.73629 -29.18749 8.63835 3.327 34.67072 -38.54824 54.45659 61.96008 79.45184 -10.15021 -3.03288 29.3116 11.08937 -7.50066 13.71397 -79.93013 -15.29556 2.65597 12.48519 6.00067 7.55153 -17.88902 -5.00891 -2.12891 1.57798 3.56407 3.72318 -16.27902 -32.6201 12.55317 -1.2514 -4.00837
-0.01419 0.98184 1.34033 726.13728 0 -7.01244 -1.89807 -0.39758 -6.29822 -28.87249 8.23217 3.11005 33.07597 -39.08111 52.55615 66.31745 79.41612 -11.2836 -3.0788 28.83324 11.77498 -7.17416 13.62003 -79.42351 -15.15686 2.45928 11.58161 6.18252 6.40255 -17.25556 -4.87147 -2.13274 1.43021 4.98231 4.12877 -16.13123 -35.08128 11.60797 -1.55755 -5.11464
-0.00842 0.98293 1.34606 727.67573 0 -7.07607 -2.1779 -0.31933 -6.21837 -28.94424 7.92543 2.81931 32.06844 -39.31515 50.31024 71.32589 79.3992 -12.17558 -3.09219 28.53183 12.4107 -6.73518 13.79458 -79.24954 -14.93784 2.30431 10.589 6.32112 5.14026 -16.38522 -4.78812 -2.11277 1.34379 6.62899 4.53631 -15.78906 -37.70807 10.44984 -1.78557 -6.31563
-0.00235 0.984 1.35192 729.15935 0 -7.1367 -2.42074 -0.26115 -5.95561 -28.82069 7.57401 2.57904 30.78759 -39.69884 48.22336 76.03974 79.32202 -13.15662 -3.10547 28.1523 13.05035 -6.38193 13.84655 -78.92287 -14.76064 2.14036 9.64042 6.47658 3.94184 -15.62339 -4.68023 -2.10577 1.22382 8.14745 4.93896 -15.49996 -40.20916 9.41674 -2.02642 -7.40203
0.00388 0.98508 1.35799 730.68696 0 -7.22358 -2.67381 -0.17279 -5.75122 -28.74784 7.21068 2.27101 29.47641 -40.04619 46.12025 80.79681 79.45042 -14.28402 -3.17676 27.7508 13.77443 -5.92139 13.90304 -78.59892 -14.5725 1.93489 8.67268 6.64446 2.6855 -14.85753 -4.56377 -2.09096 1.12073 9.77773 5.36003 -15.35337 -42.94015 8.25772 -2.36468 -8.79117
0.0096 0.98614 1.36353 732.14873 0 -7.25395 -2.92357 -0.14047 -5.52143 -28.6734 6.89981 2.08376 28.39292 -40.38873 43.97301 85.59422 79.16898 -15.01718 -3.12833 27.44191 14.30871 -5.64373 14.01369 -78.35092 -14.38414 1.82524 7.72583 6.77602 1.52405 -14.0454 -4.48041 -2.08658 0.99792 11.22397 5.74279 -14.8684 -45.21705 7.31257 -2.48223 -9.57559
0.01414 0.98717 1.36781 733.37573 0 -7.12848 -3.14435 -0.27278 -5.12303 -28.50082 6.70605 2.26577 27.75866 -40.80351 41.77468 90.41118 77.63268 -14.83806 -2.6694 27.34462 14.33118 -5.88525 14.20045 -78.21676 -14.20877 1.97399 6.85171 6.81708 0.66518 -13.14576 -4.48545 -2.11309 0.82829 12.1306 6.01685 -13.46891 -46.2979 7.01473 -1.99277 -8.62239
0.01819 0.98816 1.37156 734.53843 0 -6.94648 -3.35925 -0.46205 -4.69261 -28.31781 6.56372 2.56856 27.3476 -41.2183 39.54782 95.2268 75.70066 -14.2436 -2.10568 27.33646 14.16332 -6.31108 14.43335 -78.15053 -14.03529 2.21694 6.00352 6.82315 -0.09564 -12.21094 -4.52141 -2.1514 0.63367 12.83858 6.25241 -11.74097 -46.89622 6.93958 -1.28684 -7.06548
0.02244 0.98915 1.37551 735.74923 0 -6.79106 -3.57746 -0.62355 -4.2873 -28.14335 6.40129 2.80377 26.86575 -41.62214 37.34333 99.99383 74.0344 -13.7531 -1.64889 27.28956 14.08217 -6.65602 14.65 -78.06312 -13.86325 2.41408 5.14825 6.84564 -0.90886 -11.30356 -4.53777 -2.18648 0.43706 13.62062 6.50705 -10.18255 -47.65024 6.76047 -0.69016 -5.81291
0.02677 0.99021 1.37966 736.88314 0 -6.63154 -3.79565 -0.79213 -3.84844 -27.96509 6.22795 3.08883 26.27445 -42.0628 35.08493 104.99553 72.02697 -13.60539 -0.94639 27.24054 13.99969 -6.98723 14.85675 -77.94662 -13.67919 2.62532 4.26959 6.86437 -1.69331 -10.33929 -4.57906 -2.21164 0.29915 14.47948 6.75545 -8.53315 -48.68001 6.58553 -0.04375 -4.43513
0.03083 0.99111 1.38324 738.1614 0 -6.46738 -4.01149 -0.95968 -3.46857 -27.78812 6.08877 3.30119 25.95613 -42.42979 32.93912 109.49513 70.60962 -12.65765 -0.72398 27.21565 13.87389 -7.39012 15.09084 -77.9022 -13.52129 2.82906 3.44742 6.88325 -2.51257 -9.48861 -4.57537 -2.26071 0.03179 15.12783 7.00725 -6.99604 -49.01695 6.45748 0.54801 -3.17606
0.03437 0.99156 1.38546 739.84685 0 -6.30278 -4.22188 -1.11215 -3.2476 -27.61034 6.02691 3.27058 26.34161 -42.60069 31.09301 112.63905 71.15088 -9.52085 -1.91518 27.22805 13.68821 -7.96197 15.39383 -78.04165 -13.43771 2.98827 2.77172 6.91085 -3.454 -8.95846 -4.43765 -2.3717 -0.5823 15.24463 7.28098 -5.86527 -47.57208 6.40691 0.94886 -2.369
0.03766 0.99184 1.3871 741.68022 0 -6.13581 -4.42975 -1.2614 -3.08735 -27.43374 5.99795 3.16535 26.9906 -42.69754 29.36745 115.26768 72.26092 -5.6115 -3.5817 27.26202 13.46351 -8.59698 15.72039 -78.24942 -13.38018 3.13657 2.15309 6.94007 -4.43294 -8.54543 -4.25376 -2.50659 -1.32657 15.15503 7.55868 -4.85658 -45.44375 6.3965 1.28483 -1.70539
0.04103 0.99219 1.38896 743.45054 0 -5.97081 -4.6387 -1.41123 -2.90567 -27.2592 5.95639 3.10298 27.51291 -42.82491 27.59899 118.10999 72.95201 -2.10789 -4.98987 27.29048 13.24798 -9.193 16.03188 -78.42324 -13.30951 3.2902 1.51081 6.96897 -5.39269 -8.08107 -4.09228 -2.63155 -2.01506 15.15802 7.83269 -3.78297 -43.61812 6.36719 1.64108 -0.99198
0.04453 0.99256 1.39102 745.20269 0 -5.79978 -4.84793 -1.56701 -2.69811 -27.07327 5.9069 3.00706 28.07199 -42.96525 25.77461 121.04299 74.28718 1.64914 -6.57294 27.30491 13.06098 -9.83903 16.36406 -78.6117 -13.24471 3.4457 0.85947 6.9949 -6.35787 -7.60708 -3.92595 -2.75333 -2.69172 15.1594 8.11402 -2.73885 -41.80711 6.34824 2.04213 -0.19568
0.04769 0.99284 1.3925 747.02662 0 -5.64187 -5.05583 -1.7086 -2.55794 -26.91181 5.88086 2.96168 28.61487 -43.06111 24.10143 123.65993 74.4456 5.04626 -7.90617 27.35143 12.80894 -10.39327 16.65748 -78.78519 -13.1734 3.5933 0.24053 7.0278 -7.32224 -7.18176 -3.75824 -2.88681 -3.42159 15.11762 8.38069 -1.66505 -39.81215 6.31436 2.33373 0.38993
0.05002 0.99292 1.39263 749.02957 0 -5.51788 -5.2623 -1.81404 -2.59991 -26.81424 5.91281 3.07407 29.03948 -43.05196 22.76806 125.56799 71.00401 7.34651 -8.43183 27.48967 12.37794 -10.6785 16.84203 -78.89738 -13.08222 3.72238 -0.30531 7.08048 -8.27176 -6.86078 -3.59872 -3.05066 -4.28461 15.00821 8.61304 -0.49541 -37.45804 6.22889 2.31932 0.39265
0.05201 0.99289 1.39218 751.09647 0 -5.40811 -5.46719 -1.9046 -2.70571 -26.742 5.9667 3.23925 29.43876 -43.00069 21.59156 127.16796 66.39843 9.24105 -8.69039 27.65731 11.88559 -10.86739 16.98531 -78.99207 -12.98297 3.84294 -0.82005 7.14011 -9.21963 -6.58561 -3.4391 -3.22468 -5.19362 14.86332 8.82922 0.70907 -34.94947 6.12605 2.19939 0.19198
0.05412 0.9929 1.39192 753.12364 0 -5.29385 -5.67184 -2.00023 -2.7752 -26.66029 6.00939 3.37974 29.8549 -42.96894 20.37542 128.88498 62.46843 11.26112 -9.07275 27.80567 11.42797 -11.10066 17.1452 -79.09694 -12.88422 3.96696 -1.34779 7.1962 -10.17185 -6.29006 -3.27891 -3.39139 -6.06905 14.73488 9.04851 1.90714 -32.5246 6.03037 2.13972 0.10517
0.05637 0.99296 1.39193 755.20226 0 -5.1707 -5.88068 -2.10293 -2.8775 -26.5696 6.05843 3.52086 30.25954 -42.93299 19.03109 130.68372 57.9456 13.55137 -9.46163 27.98032 10.93943 -11.33737 17.31684 -79.19615 -12.79887 4.09385 -1.87896 7.25404 -11.11286 -5.99505 -3.11976 -3.5702 -7.0008 14.59749 9.28639 3.06369 -30.01358 5.93918 2.02662 -0.07655
0.05825 0.99288 1.39125 757.18539 0 -5.07006 -6.08015 -2.18738 -2.92599 -26.50412 6.09906 3.67391 30.6765 -42.89678 17.98786 132.24237 54.36561 15.1793 -9.76704 28.10633 10.50193 -11.53862 17.45159 -79.30044 -12.68448 4.21107 -2.39554 7.30972 -12.0729 -5.71039 -2.95896 -3.726 -7.82666 14.47334 9.48094 4.31364 -27.66051 5.83417 1.99977 -0.1073
0.05925 0.99248 1.38893 758.90191 0 -5.02325 -6.25649 -2.22528 -2.80887 -26.49782 6.11021 3.8493 31.14975 -42.87054 17.75228 133.24441 53.74107 15.0124 -9.90779 28.09527 10.21535 -11.70419 17.51393 -79.43657 -12.48183 4.31912 -2.8867 7.35888 -13.11689 -5.42476 -2.79417 -3.81497 -8.32795 14.39292 9.56538 5.83637 -25.73328 5.69279 2.24351 0.33009
0.0599 0.99195 1.38592 760.51687 0 -4.99952 -6.42293 -2.24532 -2.63547 -26.51682 6.11202 4.03468 31.63143 -42.84594 17.81169 134.01205 54.08929 14.20041 -9.97156 28.03326 9.98368 -11.82989 17.53674 -79.57554 -12.25177 4.41498 -3.36322 7.40521 -14.17504 -5.15104 -2.62777 -3.88046 -8.72329 14.32831 9.60544 7.44691 -23.9835 5.53817 2.57667 0.92678
0.06069 0.99147 1.38316 762.16941 0 -4.96847 -6.59245 -2.27338 -2.48834 -26.52696 6.11863 4.21455 32.09797 -42.8205 17.72494 134.86954 53.94642 13.72356 -10.06748 27.99161 9.73 -11.94805 17.56495 -79.70398 -12.04102 4.50627 -3.84191 7.45232 -15.20502 -4.88302 -2.46205 -3.95716 -9.18158 14.25859 9.66245 9.00397 -22.1867 5.3912 2.86494 1.45028
0.06156 0.99102 1.38067 763.86105 0 -4.92462 -6.76822 -2.30123 -2.34014 -26.52674 6.1241 4.40092 32.61354 -42.79331 17.69186 135.78722 53.97393 13.05908 -10.16517 27.96295 9.46051 -12.17098 17.64513 -79.87084 -11.802 4.63962 -4.33822 7.50263 -16.32295 -4.56879 -2.2968 -4.03201 -9.58347 14.17901 9.73354 10.62436 -20.23936 5.23741 3.16776 1.97008
0.06218 0.99048 1.37743 765.44558 0 -4.91263 -6.92823 -2.32556 -2.18046 -26.55391 6.12893 4.57468 33.02679 -42.77152 17.6187 136.52688 53.88801 12.63335 -10.24577 27.89454 9.23931 -12.16775 17.60775 -79.95857 -11.6143 4.683 -4.79499 7.54449 -17.26582 -4.35422 -2.12986 -4.10494 -10.07156 14.12384 9.76364 12.12714 -18.65324 5.0941 3.46247 2.53793
0.06228 0.98977 1.37242 766.76414 0 -4.98323 -7.05054 -2.34406 -1.99828 -26.64933 6.13852 4.71757 33.17715 -42.7574 17.32993 136.84313 53.29871 13.05958 -10.28543 27.7309 9.12527 -11.54794 17.25972 -79.82672 -11.58527 4.47748 -5.14397 7.57167 -17.6796 -4.40297 -1.96159 -4.17872 -10.87131 14.13564 9.70241 13.33542 -17.99415 4.99024 3.71676 3.20033
0.06215 0.98898 1.36664 767.97691 0 -5.08474 -7.15657 -2.35999 -1.80699 -26.77164 6.14697 4.84604 33.22089 -42.74992 16.99581 136.98786 52.56075 13.74349 -10.3138 27.52869 9.06039 -10.703 16.79437 -79.61511 -11.60714 4.18264 -5.45385 7.58839 -17.9237 -4.55404 -1.79112 -4.25121 -11.75316 14.17085 9.5992 14.41215 -17.69835 4.89633 3.95932 3.90517
